Input #0, mov,mp4,m4a,3gp,3g2,mj2, from 'C:\Users\sulta\OneDrive - Invesense Asset Management Limited\Documents\remotion\benchmarks\.cache\source\whatsapp-video-2026-05-17-at-45025-am-63c56ed5.mp4':
  Metadata:
    major_brand     : mp42
    minor_version   : 0
    compatible_brands: mp42isom
  Duration: 00:01:33.77, start: 0.000000, bitrate: 766 kb/s
  Stream #0:0[0x1](und): Video: h264 (Baseline) (avc1 / 0x31637661), yuv420p(tv, bt709, progressive), 576x1024, 702 kb/s, 29.98 fps, 30 tbr, 600 tbn (default)
  Stream #0:1[0x2](und): Audio: aac (LC) (mp4a / 0x6134706D), 44100 Hz, stereo, fltp, 62 kb/s (default)
Stream mapping:
  Stream #0:0 -> #0:0 (h264 (native) -> wrapped_avframe (native))
Press [q] to stop, [?] for help
Output #0, null, to 'NUL':
  Metadata:
    major_brand     : mp42
    minor_version   : 0
    compatible_brands: mp42isom
    encoder         : Lavf62.12.101
  Stream #0:0(und): Video: wrapped_avframe, yuv420p(tv, bt709, progressive), 576x1024, q=2-31, 200 kb/s, 30 fps, 30 tbn (default)
    Metadata:
      encoder         : Lavc62.28.101 wrapped_avframe
[Parsed_scdet_0 @ 000002a6571f6240] lavfi.scd.score: 72.392, lavfi.scd.time: 6.4
[Parsed_scdet_0 @ 000002a6571f6240] lavfi.scd.score: 67.301, lavfi.scd.time: 9.5
[Parsed_scdet_0 @ 000002a6571f6240] lavfi.scd.score: 72.370, lavfi.scd.time: 34.5
[Parsed_scdet_0 @ 000002a6571f6240] lavfi.scd.score: 26.139, lavfi.scd.time: 51.766667
[Parsed_scdet_0 @ 000002a6571f6240] lavfi.scd.score: 65.286, lavfi.scd.time: 61.7
[Parsed_scdet_0 @ 000002a6571f6240] lavfi.scd.score: 31.012, lavfi.scd.time: 66.9
[Parsed_scdet_0 @ 000002a6571f6240] lavfi.scd.score: 65.313, lavfi.scd.time: 81.6
[Parsed_scdet_0 @ 000002a6571f6240] lavfi.scd.score: 71.697, lavfi.scd.time: 85.666667
[Parsed_scdet_0 @ 000002a6571f6240] lavfi.scd.score: 73.821, lavfi.scd.time: 87.433333
[Parsed_scdet_0 @ 000002a6571f6240] lavfi.scd.score: 74.155, lavfi.scd.time: 89.733333
[Parsed_scdet_0 @ 000002a6571f6240] lavfi.scd.score: 19.092, lavfi.scd.time: 89.766667
[out#0/null @ 000002a6571f5140] video:1164KiB audio:0KiB subtitle:0KiB other streams:0KiB global headers:0KiB muxing overhead: unknown
frame= 2811 fps=0.0 q=-0.0 Lsize=N/A time=00:01:33.76 bitrate=N/A speed= 465x elapsed=0:00:00.20    
